<?xml version="1.0" encoding="utf-8"?>
<!-- Generator: Adobe Illustrator 18.1.1, SVG Export Plug-In . SVG Version: 6.00 Build 0)  -->
<svg version="1.1" id="Layer_1" xmlns="http://www.w3.org/2000/svg" xmlns:xlink="http://www.w3.org/1999/xlink" x="0px" y="0px"
	 viewBox="0 0 100 100" enable-background="new 0 0 100 100" xml:space="preserve">
<path fill="#333333" d="M61.7,71.7c-1.7-0.6-2.1-1.9-2.1-3.6c0.1-4.4,0-8.8,0-13.2c0-0.5-0.1-0.7-0.7-0.7c-6.2,0-12.4,0-18.6,0
	c-0.6,0-0.7,0.2-0.7,0.7c0,4.7,0,9.3,0,14c0,0.4-0.1,1.2-0.7,1.9c-0.3,0.4-0.8,0.7-1,0.8c-2.1,0-4.1,0-6.2,0
	c-1.8-0.6-2.1-1.9-2.1-3.6c0-11.8,0-23.7,0-35.5c0-0.3,0-0.5,0-0.8c0.1-1.4,0.9-2.2,2.3-2.4c1.8,0,3.5,0,5.3,0
	c1.5,0.2,2.3,1.1,2.3,2.7c0,4.7,0,9.4,0,14.1c0,0.5,0.1,0.7,0.7,0.7c6.2,0,12.4,0,18.6,0c0.6,0,0.7-0.2,0.7-0.7c0-4.7,0-9.3,0-14
	c0-1.5,0.8-2.4,2.3-2.7c1.8,0,3.5,0,5.3,0c1.6,0.2,2.3,1.2,2.3,3c0,12.1,0,24.2,0,36.3c0,0.3,0,0.5,0,0.8c0,0.2-0.2,0.7-0.6,1.3
	c0,0-0.2,0.3-0.4,0.5C67.9,71.9,65.2,72.1,61.7,71.7z"/>
<path fill="#333333" d="M17.3,48.8c0.3-0.9,0.8-1.3,1.1-1.5c0.7-0.4,1.5-0.4,2-0.5c0.9,0,1.6,0.2,1.8-0.2c0.1-0.1,0.1-0.3,0.1-0.4
	c0-0.8,0-6.2,0-8.8c0-1.1,0.2-1.8,0.7-2.3c0.8-0.8,2.1-0.7,2.3-0.7c0.4,0,1.1,0.1,1.5,0.5c0.5,0.5,0.4,1.2,0.4,1.4
	c0,1.2,0,28.6,0,29.7c0,0.1,0,0.4-0.2,0.6c-0.2,0.2-0.4,0.2-1.3,0.2c-0.6,0-0.9,0-1.1-0.1c-0.6-0.1-1.1-0.2-1.5-0.6
	c-0.4-0.4-0.7-0.9-0.8-1.5c0-0.3-0.1-0.6-0.1-0.9c0-2.9,0-5.9,0-8.8c0-0.5-0.1-0.7-0.6-0.6c-0.3,0-0.6,0-0.9,0
	c-1.6,0.1-2.8-0.4-3.4-1.9c-0.1-0.5-0.2-1.2-0.2-2C17.1,49.8,17.2,49.2,17.3,48.8z"/>
<path fill="#353535" d="M82,52.4c-0.1,0.4-0.4,1-1,1.4c-0.7,0.5-1.5,0.5-1.7,0.5c-0.5,0-1.1,0-1.6,0c-0.5,0-0.6,0.1-0.6,0.6
	c0,3,0,6,0,9c0,1.3-0.6,2.3-1.6,2.6c-1,0.4-2.1,0.1-3.2,0.2c-0.2,0-0.2-0.1-0.2-0.3c0-0.1,0-0.3,0-0.4c0-0.6,0.1-29.6,0-30.9
	c0-0.1,0-0.3,0.1-0.5c0.2-0.2,0.4-0.2,0.6-0.2c0.8-0.1,1.3,0,1.8,0c1.4,0.1,2.3,0.9,2.5,2.3c0.1,0.7,0,1.5,0,2.2c0,2.5,0,4.9,0,7.4
	c0,0.4,0.1,0.6,0.6,0.6c0.5,0,0.9,0,1.4,0c1.8,0,2.4,0.5,3,2.1c0.1,0.5,0.1,1.1,0.1,1.8C82.1,51.3,82.1,51.9,82,52.4z"/>
</svg>
