<?xml version="1.0" encoding="utf-8"?>
<!-- Generator: Adobe Illustrator 18.1.1, SVG Export Plug-In . SVG Version: 6.00 Build 0)  -->
<svg version="1.1" id="Layer_1" xmlns="http://www.w3.org/2000/svg" xmlns:xlink="http://www.w3.org/1999/xlink" x="0px" y="0px"
	 viewBox="0 0 100 100" enable-background="new 0 0 100 100" xml:space="preserve">
<path fill="#333333" d="M37,20.2c-0.1,0-0.5,0-0.7,0.3c-0.2,0.2-0.2,0.5-0.3,0.6c-0.3,4.4-0.2,5.5,0.1,5.5c0,0,0.1,0,0.4,0.1
	c0.3,0,0.5,0.1,0.6,0.1c0.3,0.1,0.5,0.2,0.5,0.5c0.1,0.3-0.2,0.6-0.6,0.7c-1.1,0.5-2.7,1.4-4.2,3c-2.2,2.4-3,4.9-3.2,6.2
	c0.1,11.8,0.2,23.5,0.2,35.3c0,0.7,0.1,1.9,0.8,3.1c0.2,0.3,0.9,1.5,3,2.4c4.5,2,14,2.1,14.8,2.2c0.4,0,0.9,0,1.6,0
	c0-19.9,0-40.6,0-60.5C45.4,19.6,41,19.8,37,20.2z"/>
<path fill="#4D4D4D" d="M35.6,73.9L35.6,73.9c-1.4,0-2.5-1.1-2.5-2.5V38c0-1.4,1.1-2.5,2.5-2.5h0c1.4,0,2.5,1.1,2.5,2.5v33.5
	C38.1,72.8,37,73.9,35.6,73.9z"/>
<path fill="#333333" d="M62,20.2c0.1,0,0.4,0,0.7,0.3c0.2,0.2,0.2,0.5,0.2,0.6c0.3,4.4,0.1,5.5-0.1,5.5c0,0-0.1,0-0.3,0.1
	c-0.3,0-0.5,0.1-0.6,0.1c-0.2,0.1-0.4,0.2-0.5,0.5c0,0.3,0.2,0.6,0.5,0.7c1,0.5,2.5,1.4,3.9,3c2,2.4,2.7,4.9,3,6.2
	c-0.1,11.8-0.1,23.5-0.2,35.3c0,0.7-0.1,1.9-0.7,3.1c-0.2,0.3-0.9,1.5-2.8,2.4c-4.1,2-13,2.1-13.8,2.2c-0.3,0-0.8,0-1.4,0
	c0-19.9,0-40.6,0-60.5C54.3,19.6,58.3,19.8,62,20.2z"/>
</svg>
